#!OML:ASF C:\ViconDB\ViconDB\414\Spring2016\041811\Spring2016.ASF
:FULLY-SPECIFIED
:DEGREES
154
root 9.61807 17.5096 3.15039 -172.228 -3.38475 179.366
lowerback 6.95894 -0.442022 -2.11959
upperback 0.876797 -0.761782 1.92027
thorax -2.94343 -0.377712 3.25128
lowerneck -16.9026 3.85386 -7.1622
upperneck 23.4405 4.19855 9.80822
head 9.7989 2.19717 5.1801
rclavicle 9.93923e-016 5.56597e-015
rhumerus -69.2729 -4.9443 -88.7484
rradius 89.4503
rwrist 5.38074
rhand -37.1004 -13.2593
rfingers 7.12502
rthumb -10.1715 -42.9934
lclavicle 9.93923e-016 5.56597e-015
lhumerus -50.7517 -26.1411 101.677
lradius 91.9884
lwrist -15.0864
lhand -37.7582 11.8642
lfingers 7.12502
lthumb -10.806 41.5662
rfemur -32.0057 -9.89406 26.7429
rtibia 51.98
rfoot -168.172 12.58
rtoes -11.5821
lfemur -4.63422 -5.12583 -18.5084
ltibia 61.1811
lfoot 27.1898 -2.69312
ltoes -0.359509
155
root 9.5982 17.437 2.7586 -172.845 -3.09619 180.114
lowerback 7.27948 -0.00292198 -1.51148
upperback 1.15712 -0.155634 2.24349
thorax -2.87673 -0.0984159 3.18847
lowerneck -16.6424 3.59316 -7.23885
upperneck 22.8912 3.93974 9.67671
head 9.58552 2.07477 5.08276
rclavicle 7.55382e-015 2.78299e-014
rhumerus -66.8571 -4.87828 -89.1194
rradius 89.8213
rwrist 5.55188
rhand -37.2205 -13.4477
rfingers 7.12502
rthumb -10.2874 -43.1761
lclavicle 7.55382e-015 2.78299e-014
lhumerus -51.2667 -24.902 101.762
lradius 88.2419
lwrist -16.0494
lhand -36.7119 12.2991
lfingers 7.12502
lthumb -9.79667 42.0512
rfemur -29.9477 -9.59295 27.3445
rtibia 52.2526
rfoot -169.23 13.1972
rtoes -11.1515
lfemur -6.93071 -4.26297 -16.9127
ltibia 65.5625
lfoot 25.4045 -4.55074
ltoes -0.232682
156
root 9.57962 17.3557 2.37435 -173.35 -2.74192 180.938
lowerback 7.57446 0.493115 -0.8356
upperback 1.36426 0.532909 2.57758
thorax -2.8696 0.222666 3.08705
lowerneck -16.3361 3.32647 -7.14615
upperneck 22.4143 3.64178 9.41212
head 9.4019 1.92753 4.90908
rclavicle -7.95139e-016 -3.97569e-015
rhumerus -64.3398 -4.65461 -89.3378
rradius 90.498
rwrist 5.51606
rhand -37.3123 -13.926
rfingers 7.12502
rthumb -10.3759 -43.65
lclavicle -7.95139e-016 -3.97569e-015
lhumerus -51.8342 -23.7833 101.777
lradius 84.2036
lwrist -16.5598
lhand -36.2615 12.6522
lfingers 7.12502
lthumb -9.36214 42.4243
rfemur -28.009 -9.26356 28.0543
rtibia 52.4955
rfoot -169.889 13.8706
rtoes -10.0564
lfemur -9.54028 -3.29135 -15.1909
ltibia 69.8428
lfoot 23.5591 -6.89975
ltoes -0.796804
157
root 9.55082 17.2693 2.00653 -173.599 -2.5235 182.004
lowerback 7.83587 0.852172 0.150602
upperback 1.46403 1.06502 3.00501
thorax -2.93358 0.462007 2.91992
lowerneck -16.1951 3.14391 -6.99468
upperneck 22.1119 3.45568 9.09101
head 9.30155 1.82903 4.73329
rclavicle -1.31198e-014 -1.82882e-014
rhumerus -61.4496 -4.15482 -89.6465
rradius 90.4609
rwrist 5.68923
rhand -37.7778 -14.3356
rfingers 7.12502
rthumb -10.8249 -44.0366
lclavicle -1.31198e-014 -1.82882e-014
lhumerus -52.3506 -22.4816 101.589
lradius 80.0102
lwrist -17.509
lhand -36.0202 13.7597
lfingers 7.12502
lthumb -9.12928 43.5421
rfemur -26.4393 -9.61251 28.9914
rtibia 52.7332
rfoot -170.89 14.7823
rtoes -9.90463
lfemur -12.6967 -2.51393 -13.2339
ltibia 74.0651
lfoot 21.6019 -8.92991
ltoes -1.33498
158
root 9.51284 17.1788 1.63993 -173.932 -1.88851 182.754
lowerback 8.1366 1.28139 0.73737
upperback 1.67444 1.65099 3.37745
thorax -2.90628 0.727722 2.91324
lowerneck -16.2172 3.00538 -6.74778
upperneck 21.8665 3.37697 8.53753
head 9.249 1.76734 4.48119
rclavicle 1.39149e-015 3.33958e-014
rhumerus -58.6394 -3.51183 -89.8577
rradius 91.1658
rwrist 5.92026
rhand -38.0958 -14.1909
rfingers 7.12502
rthumb -11.1317 -43.8757
lclavicle 1.39149e-015 3.33958e-014
lhumerus -52.9101 -20.9621 101.227
lradius 75.5986
lwrist -18.6005
lhand -35.7055 13.7756
lfingers 7.12502
lthumb -8.82564 43.5711
rfemur -24.6484 -9.83878 29.3982
rtibia 52.89
rfoot -171.341 15.9627
rtoes -9.39878
lfemur -15.6394 -1.45177 -11.7547
ltibia 77.9661
lfoot 19.3714 -10.3283
ltoes -1.62273
